<?xml version="1.0" encoding="UTF-8" standalone="no"?>
<svg
   height="100px"
   width="100px"
   fill="#000000"
   version="1.1"
   x="0px"
   y="0px"
   viewBox="0 0 100 100"
   style="enable-background:new 0 0 100 100;"
   xml:space="preserve"
   id="svg6"
   sodipodi:docname="noun_Users_1236015.svg"
   inkscape:version="1.2.2 (1:1.2.2+202212051550+b0a8486541)"
   xmlns:inkscape="http://www.inkscape.org/namespaces/inkscape"
   xmlns:sodipodi="http://sodipodi.sourceforge.net/DTD/sodipodi-0.dtd"
   xmlns="http://www.w3.org/2000/svg"
   xmlns:svg="http://www.w3.org/2000/svg"><defs
     id="defs10" /><sodipodi:namedview
     id="namedview8"
     pagecolor="#505050"
     bordercolor="#eeeeee"
     borderopacity="1"
     inkscape:showpageshadow="0"
     inkscape:pageopacity="0"
     inkscape:pagecheckerboard="0"
     inkscape:deskcolor="#505050"
     showgrid="false"
     inkscape:zoom="5.7063517"
     inkscape:cx="9.6383824"
     inkscape:cy="68.958245"
     inkscape:window-width="1920"
     inkscape:window-height="954"
     inkscape:window-x="0"
     inkscape:window-y="28"
     inkscape:window-maximized="1"
     inkscape:current-layer="svg6" /><path
     d="m 7.7283513,67.523779 c 0.455374,-0.512296 0.9676689,-0.626139 1.4230429,-1.081513 0.34153,-0.398452 0.626139,-0.626139 0.398452,-1.195356 -0.170765,-0.739982 0.227687,-1.366121 0.5122948,-1.99226 0.284608,-0.68306 0.739983,-1.309199 0.512296,-2.219946 -0.170766,-0.512295 0.227687,-1.138434 0.512295,-1.65073 0.68306,-1.252277 1.479964,-2.447633 2.390711,-3.529146 0.96767,-1.195355 1.99226,-2.276868 2.903007,-3.472223 0.853826,-1.081513 1.99226,-1.878417 3.016851,-2.789164 0.569217,-0.512295 1.138434,-0.910748 1.650729,-1.479965 0.739982,-0.853825 1.764573,-1.138434 2.732243,-1.309198 2.049181,-0.341531 3.813754,-1.423043 5.919857,-1.707652 1.821495,-0.227687 3.586067,-0.68306 5.407562,-0.512295 0.398452,0.05692 0.796904,0 1.138434,-0.113843 1.024591,-0.28461 2.049182,-0.227688 3.016851,0.170764 0.626139,0.284609 1.252277,0 1.878416,0.05692 0.284609,0.05692 0.967669,-0.284608 0.455374,0.512296 0.227686,0.113843 0.455373,0.227686 0.68306,0.284608 2.618398,0.683061 4.952188,2.049182 7.3429,3.301459 0.170766,0.113843 0.512296,0.113843 0.455374,0.455374 -0.113843,0.910747 0.227687,0.796904 0.796904,0.34153 0.227686,-0.170765 0.455374,-0.05692 0.68306,0.170765 0.113844,0.113844 0.284609,0.284609 0.398452,0.455373 1.707652,2.106104 3.529146,4.098363 5.009111,6.31831 0.626139,0.910747 1.138433,1.821495 1.252277,2.959929 0.113844,1.081512 0.967669,1.764573 1.479964,2.67532 0.227687,0.398452 0.398452,0.739982 0.512296,1.138434 0.113843,0.512296 -0.113844,1.138434 0.739982,1.423043 0.398452,0.170765 0.227686,1.195356 -0.05692,1.764573 -0.113843,0.227687 -0.284608,0.455374 -0.512295,0.68306 -0.227687,0.284609 -0.455374,0.739982 -0.796904,0.05692 -0.113844,-0.227687 -0.34153,-0.170765 -0.512295,-0.113844 -0.910748,0.341531 -1.707652,-0.05692 -2.561477,-0.227686 -1.366121,-0.227687 -2.732242,-0.170765 -4.098363,-0.170765 -3.472224,-0.05692 -6.944448,-0.05692 -10.473594,-0.05692 -1.195356,0 -2.33379,-0.05692 -3.529146,0 -2.561477,0.170765 -5.179875,0.170765 -7.798274,0.227687 -3.073772,0.05692 -6.147544,0.398451 -9.221316,0.683061 -1.536886,0.113843 -3.016851,-0.05692 -4.496815,0 -1.935338,0.113843 -3.870676,0.227686 -5.862936,0.170764 -1.0815118,0 -2.1630248,-0.113843 -3.3014587,-0.227686 z M 45.182834,48.511928 c -0.34153,0.284609 -0.68306,0.569218 -1.024591,0.796904 -0.512295,0.34153 -0.284608,0.739983 -0.113843,1.138434 0.227687,0.455374 0.512296,0.455374 0.967669,0.284609 1.138434,-0.398452 1.195356,-0.569217 0.569217,-1.536886 -0.170765,-0.227687 -0.512295,-0.341531 -0.398452,-0.683061 -1.081512,-1.366121 -2.106103,-1.536886 -4.098363,-0.68306 0,0.455374 0.341531,0.796904 0.569217,1.138434 0.170765,0.227687 0.455374,0.227687 0.683061,0.113844 0.284608,-0.113844 0.227686,-0.341531 0.170765,-0.626139 -0.05692,-0.170765 -0.113843,-0.398453 0.284608,-0.455374 0.569217,0.853825 1.423043,0.910747 2.390712,0.512295 z m 2.163025,4.781424 c -1.479964,0.569217 -3.01685,0.967668 -4.66758,1.252278 0.170765,-0.455374 0.512295,-0.455374 0.796904,-0.569218 1.195356,-0.455374 1.309199,-0.853825 0.512295,-1.821494 -0.284608,-0.341531 -0.569217,-0.227688 -0.910747,-0.170766 -1.081513,0.227688 -2.106103,0.683061 -3.244537,0.683061 0.455373,-0.284608 0.967669,-0.512295 1.479964,-0.683061 0.512295,-0.170765 0.796904,-0.455373 0.626139,-1.081512 -0.170765,-0.569217 -0.512295,-0.796904 -1.081513,-0.739982 -0.34153,0.05692 -0.68306,0.113843 -0.967668,0.284608 -0.853826,0.341531 -1.764574,0.341531 -2.675321,0.569217 0.170765,-0.170765 0.398452,-0.341529 0.626139,-0.398451 0.512296,-0.170766 0.967669,-0.341531 0.626139,-1.024591 -0.284609,-0.626139 -0.569217,-0.967669 -1.366121,-0.626139 -0.455374,0.227687 -1.024591,0.227687 -1.593808,0.170765 0.34153,-0.569217 0.910747,-0.512295 1.366121,-0.68306 0.34153,-0.113843 0.853826,-0.170765 0.626139,-0.739982 -0.170766,-0.455374 -0.455374,-0.739983 -1.024591,-0.512296 -0.455373,0.170765 -0.967669,0.341531 -1.479965,0.170765 0.227688,-0.34153 0.512296,-0.398452 0.796904,-0.512295 0.341531,-0.113843 0.96767,-0.05692 0.910748,-0.569217 -0.05692,-0.512296 -0.626139,-0.512296 -1.081513,-0.569218 -0.113843,0 -0.284608,0 -0.455373,0 -2.903007,0.113844 -5.692171,0.398453 -8.538256,1.423043 -2.789164,0.967669 -5.009111,2.561477 -7.172136,4.496815 -1.536886,1.3092 -2.732241,2.903008 -3.813754,4.610659 -1.081512,1.707651 -2.276868,3.35838 -3.016851,5.35064 -0.284608,0.796904 -0.569216,1.593808 -0.739981,2.390712 -0.170765,0.853825 -0.796904,1.536886 -0.796904,2.504555 1.138434,0 2.276868,-0.05692 3.301459,0.05692 1.138434,0.113843 2.219946,0.113843 3.301459,-0.170765 -0.113843,-0.512295 -0.683061,-0.05692 -0.796904,-0.512295 0.34153,-0.398452 0.853825,-0.34153 1.309199,-0.398452 1.821495,-0.113844 3.642989,-0.113844 5.464484,-0.113844 4.212206,0 8.424413,0.05692 12.636619,0.05692 3.756833,0.05692 7.570587,-0.113844 11.32742,0.05692 0.398451,0 0.853825,0.113844 1.138433,-0.170765 0.626139,-0.512295 1.366122,-0.455373 2.106104,-0.34153 1.593808,0.227687 3.130694,-0.170765 4.553736,-0.739982 0.227687,-0.113844 0.398452,-0.284609 0.34153,-0.569217 -0.05692,-0.227687 -0.227686,-0.284609 -0.455373,-0.227687 -0.455374,0.05692 -0.853825,0.170765 -1.309199,0.227687 -1.195356,0.113843 -2.390712,0.739982 -3.64299,0.34153 1.3092,-0.455373 2.561478,-0.796904 3.870676,-1.081512 1.366121,-0.341531 1.423043,-0.398453 1.252278,-1.764573 -0.113843,-0.853826 -0.34153,-1.081513 -1.138434,-0.796904 -0.853826,0.34153 -1.707652,0.34153 -2.504555,0.512295 -0.910748,0.170765 -1.878416,0.569217 -2.846085,0.341531 1.02459,-0.512296 2.106102,-0.626139 3.130694,-0.910748 0.284608,-0.05692 0.626138,-0.113844 0.68306,-0.455374 0.05692,-0.512295 0.05692,-1.02459 -0.227687,-1.423042 -0.284608,-0.398452 -0.739982,-0.227687 -1.081512,-0.113844 -1.366121,0.34153 -2.732243,0.739983 -4.155285,0.967669 -1.138434,0.227687 -2.219946,0.626139 -3.472224,0.398453 0.170765,-0.341531 0.455374,-0.341531 0.683061,-0.341531 1.593807,-0.34153 3.187615,-0.683061 4.724501,-1.024591 1.024591,-0.227686 1.195356,-0.512295 0.967669,-1.593807 -0.05692,-0.170765 -0.113843,-0.398453 -0.170765,-0.569218 -0.113843,-0.68306 -0.455374,-0.910747 -1.138434,-0.626139 -1.138434,0.455374 -2.276868,0.626139 -3.529146,0.853826 0.170765,-0.512295 0.569217,-0.512295 0.910747,-0.626138 1.479965,-0.512296 1.479965,-0.512296 1.195356,-1.99226 -0.113843,-0.284608 -0.170765,-0.34153 -0.170765,-0.455374 0.569217,0.34153 0.398452,1.024591 0.68306,1.536886 0.227688,-0.05692 0.398453,-0.05692 0.569218,-0.113844 0.910747,-0.227686 1.02459,-0.398451 0.796903,-1.138433 -0.227686,-0.739982 -0.398451,-0.853826 -1.252277,-0.626139 -0.284609,0.113843 -0.455374,0.455374 -0.796904,0.34153 z m 8.424412,4.439893 c -0.227686,1.99226 0.512296,3.813754 0.398453,5.69217 0,0.113844 0.170765,0.227688 0.284608,0.284609 0.626139,0.227687 1.252278,-0.284609 1.252278,-0.967669 0,-0.910747 -0.626139,-1.707651 -0.455374,-2.732242 0.170765,-0.796903 -0.683061,-1.650729 -1.479965,-2.276868 z M 44.613617,52.041074 c 0,0.910748 0.284608,1.309199 0.853826,1.309199 0.796904,-0.05692 1.423043,-0.512295 1.423043,-0.910747 -0.05692,-0.68306 -0.455375,-1.309199 -0.910748,-1.366121 -0.68306,-0.05692 -1.366121,0.455374 -1.366121,0.967669 z m 7.627509,4.269128 c -0.05692,-0.113843 -0.170765,-0.512295 -0.227687,-0.853825 -0.170765,-0.683061 -0.796904,-0.512296 -1.195356,-0.569218 -0.512295,0 -0.455374,0.512296 -0.34153,0.910748 0.05692,0.34153 0.113844,0.68306 0.170765,1.024591 0.05692,0.569216 0.227687,0.796904 0.796904,0.68306 0.569217,-0.113844 0.967669,-0.284609 0.796904,-1.195356 z M 40.970628,49.251911 c -0.05692,-0.398453 -0.284608,-0.739983 -0.569217,-1.024591 -0.455374,-0.455374 -0.910748,-0.170766 -1.309199,0.05692 -0.626139,0.284608 -0.398453,0.853825 -0.284609,1.252277 0.113843,0.512296 0.626139,0.341531 0.967669,0.227687 0.455373,-0.113844 0.910748,-0.170765 1.195356,-0.512295 z m 12.295088,9.221316 c 0.05692,1.081512 0.227687,1.366121 0.967669,1.138434 0.341531,-0.113843 0.796904,-0.113843 0.796904,-0.68306 0,-0.455374 0,-0.796904 -0.569216,-0.910748 -0.284609,-0.05692 -0.284609,-0.796904 -0.853826,-0.455373 -0.398452,0.227687 -0.341531,0.569217 -0.341531,0.910747 z M 42.507514,49.593441 c -0.512296,0.113843 -0.569217,0.512295 -0.455374,0.910747 0.113844,0.455374 0.227687,0.967669 0.967669,0.853826 0.398452,-0.05692 0.569217,-0.284609 0.512296,-0.739982 -0.113844,-0.626139 -0.569217,-1.081513 -1.024591,-1.024591 z m 5.293719,2.903007 c 0.398452,-0.739982 1.252277,-1.024591 0.796904,-1.764573 -0.284609,-0.398452 -0.910748,-0.170765 -1.195356,0.113843 -0.683061,0.569218 0,0.967669 0.398452,1.65073 z M 39.71835,47.316572 c -0.113843,-0.512294 -0.455373,-0.796904 -0.910747,-0.910747 -0.34153,-0.113843 -0.569217,0.05692 -0.796904,0.227687 -0.284608,0.227687 -0.113843,0.512295 0.05692,0.796904 0.170765,0.284609 0.398453,0.398452 0.739983,0.284609 0.34153,-0.170765 0.626139,-0.284609 0.910746,-0.398453 z m 11.953559,6.602919 c -0.170765,-0.626139 -0.512296,-1.024591 -0.967669,-1.3092 -0.398452,-0.227686 -0.796904,0 -0.796904,0.455374 0,0.796904 0.398452,1.024591 1.764573,0.853826 z m 3.642989,10.928967 c 0.739982,0.113843 1.479965,0 2.219947,0.398452 0.227686,0.113844 0.512295,0 0.512295,-0.34153 0,-0.284608 -0.05692,-0.512295 -0.34153,-0.569217 -0.227687,-0.05692 -0.455374,0 -0.739982,0.05692 -0.569218,0.170765 -1.081513,0.284608 -1.65073,0.455373 z M 46.207425,48.56885 c 0.626139,1.764573 0.626139,1.764573 1.593808,1.138434 -0.398452,-0.455373 -0.853826,-0.796904 -1.593808,-1.138434 z m -25.67169,17.531886 c 0.910748,0.113843 1.707651,0.05692 2.561477,-0.113843 -0.853826,-0.113844 -1.707651,-0.05692 -2.561477,0.113843 z M 52.924187,55.456377 c 0.113843,0.512295 -0.28461,1.195355 0.512294,1.593807 0.341531,-0.68306 -0.170765,-1.138434 -0.512294,-1.593807 z M 40.230645,46.633512 c 0.455375,0.626139 0.910748,0.512295 1.479965,0.227687 -0.455374,-0.512296 -0.853826,-0.569217 -1.479965,-0.227687 z"
     id="path2"
     style="stroke-width:0.569217" /><path
     d="m 33.912336,39.461377 c -2.276868,-0.34153 -4.66758,-0.170765 -6.830605,-1.366121 -0.569217,-0.34153 -1.02459,-0.739982 -1.423043,-1.252277 -0.227686,-0.227687 -0.739982,-1.366121 -1.138433,0 -0.05692,0.170765 -0.227687,0.170765 -0.341531,0.05692 -0.170765,-0.113844 -0.34153,-0.284609 -0.398451,-0.398452 -0.853826,-2.106103 -2.561477,-3.870676 -2.732243,-6.261388 0,-0.113843 0,-0.227687 -0.05692,-0.284608 -1.252277,-1.593808 -0.626138,-3.244538 -0.113843,-4.895267 0.170765,-0.569217 0.227687,-1.081512 0.170765,-1.707651 -0.227686,-1.536886 0.796904,-2.561477 1.764573,-3.586068 1.593808,-1.65073 3.529146,-2.789163 5.521406,-3.870676 0.910747,-0.512295 1.821494,-0.967669 2.789163,-1.309199 0.626139,-0.227688 1.195356,-0.96767 1.935339,-0.113844 0.05692,0.05692 0.227686,0.05692 0.284608,0 1.821495,-0.739982 3.415303,0.34153 5.122954,0.626139 0.68306,0.113843 1.366121,0.512295 2.106103,0.05692 0.170765,-0.113844 0.569217,-0.05692 0.569217,0.284609 -0.05692,0.68306 0.512295,0.967669 0.910747,1.195355 0.853826,0.398453 1.252278,1.366121 2.219947,1.65073 0.113843,0.05692 0.227687,0.170765 0.284609,0.34153 0.512295,1.935338 2.049181,3.415302 2.447633,5.407562 0.170765,0.796904 0.34153,1.65073 0.512295,2.447634 0.170765,0.626138 0.05692,1.366121 -0.34153,1.992259 -0.398452,0.626139 -0.626139,1.309199 -0.853826,2.049181 -0.170765,0.569218 -0.227686,1.138435 -0.910747,1.423043 -0.34153,0.113844 -0.569217,0.683061 -0.455374,0.853826 0.512296,0.569217 0.170766,0.853825 -0.170765,1.366121 -2.106103,2.903007 -5.236797,4.041441 -8.481334,4.952188 -0.796904,0.05692 -1.536886,0.284609 -2.390712,0.341531 z m 6.261388,-18.841085 c -0.398452,0.170765 -0.569217,-0.170765 -0.739982,-0.34153 -0.569218,-0.626139 -1.252278,-0.512295 -1.65073,0 -0.626139,0.796903 -1.479964,0.569217 -2.33379,0.739982 0.569218,-0.455373 1.024591,-0.853826 0.05692,-1.252277 -1.02459,-0.455374 -1.479965,-1.593808 -2.561477,-2.049182 -0.170765,-0.05692 -0.227687,-0.512296 -0.284609,-0.683061 0.170766,-0.170765 0.284609,-0.113843 0.455374,-0.05692 0.455374,0.170765 0.967669,0.113843 0.967669,-0.455373 0,-0.398452 -0.512295,-0.739982 -1.02459,-0.626139 -0.455374,0.113843 -0.910747,0.284608 -1.366121,0.455373 -0.284609,0.113844 -0.455374,0.284609 -0.796904,0.341531 -2.049182,0.113843 -3.699912,0.910747 -4.952188,2.561477 -1.195357,1.593808 -1.821496,3.472224 -2.447634,5.293719 -1.138434,3.130694 -0.34153,5.976779 1.024591,8.765942 0.398451,0.739983 1.081512,1.3092 1.992259,1.65073 1.536886,0.512296 3.130694,0.739982 4.724502,1.081513 0.796904,0.170765 1.593808,0.227686 2.504555,0.796904 -2.732242,0.227686 -5.00911,-0.910748 -7.68443,-1.195357 1.366121,1.593808 3.244537,1.593808 4.66758,2.447634 0.05692,0.05692 0.227686,0 0.284608,-0.05692 0.398452,-0.512295 0.967669,-0.284608 1.479964,-0.284608 1.252278,0 2.561477,-0.05692 3.813755,-0.113843 0.227686,0 0.569217,0 0.512295,-0.341531 -0.05692,-0.170765 -0.34153,-0.284608 -0.512295,-0.455373 0.569217,-0.569218 1.707651,-0.170766 1.935338,-1.252278 -0.68306,-0.284608 -1.366121,0.398452 -2.219946,0 0.853825,-0.512296 1.821494,-0.398452 2.447633,-0.967669 0.68306,-0.626139 0.626139,-1.536886 0.796904,-2.447633 -1.081513,0 -2.049182,0.569216 -3.301459,0.284608 1.764573,-0.569217 3.244537,-1.081512 4.838345,-1.536886 0.853825,-0.227687 1.252277,-0.683061 1.309199,-1.536886 0.05692,-0.626139 0.227687,-1.252278 -0.05692,-1.878416 -1.252278,0.34153 -2.276869,1.252277 -3.64299,0.967669 0.341531,-0.284609 0.683061,-0.455374 1.024591,-0.569218 0.853826,-0.341529 0.512295,-0.853825 0.34153,-1.423042 -0.227686,-0.683061 -0.455374,-1.081513 -1.252278,-0.796904 -0.853825,0.34153 -1.707651,0.626139 -2.675319,0.569217 0.113843,-0.34153 0.34153,-0.284608 0.512295,-0.34153 0.739982,-0.341531 1.65073,-0.455374 2.276868,-0.96767 0.398452,-0.341529 0.68306,-0.626138 1.309199,-0.569216 0.455374,0.05692 0.910747,-0.341531 1.3092,-0.569217 0.68306,-0.284609 -0.113843,-0.910747 0.34153,-1.3092 0.68306,0.910747 1.423042,0.512296 2.163025,0.170765 0.398452,-0.170765 0.739982,-0.512295 0.626139,-0.910747 -0.170765,-0.455373 -0.284609,-1.138434 -0.967669,-1.138434 -0.398453,0 -0.796904,-0.05692 -1.252278,0.227687 -1.02459,0.626139 -2.163025,1.195356 -3.244537,1.707651 -0.569217,0.284609 -1.138435,0.739982 -2.163025,0.796904 1.764572,-1.536886 3.813754,-1.992259 5.35064,-3.301459 -1.423042,-1.479965 -1.479964,-1.479965 -2.67532,-0.455374 0.05692,0.341531 0.796904,0.455374 0.739983,1.024591 z m 0.512296,6.545996 c 0.626138,-0.227686 1.195355,-0.455373 1.707651,-0.68306 0.113843,-0.05692 0.284608,-0.113844 0.398451,-0.227687 0.170766,-0.113843 0.341531,-0.170765 0.398452,-0.398452 0.113844,-0.853826 -0.967668,-1.764573 -1.764572,-1.479964 -1.707652,0.569216 -1.821495,0.796904 -0.96767,2.447633 0.05692,0.113844 0.113844,0.170765 0.227688,0.34153 z m 4.04144,-4.269127 c -0.398451,0.170765 -0.739982,0.284608 -1.02459,0.398451 -0.284609,0.113843 -0.796904,0.284609 -0.626139,0.683061 0.170765,0.512295 0.113843,1.195356 0.739982,1.479964 0.227687,0.113843 0.455374,0 0.683061,-0.170765 0.739982,-0.569217 0.796904,-1.024591 0.227686,-2.390711 z M 39.604507,33.88305 c 1.593808,0.113843 2.106103,-0.626139 1.764573,-2.447633 -1.707652,0 -1.593808,1.309198 -1.764573,2.447633 z m 5.00911,-3.756833 c -0.227687,0.113843 -0.512295,0.398452 -0.739982,0.398452 -1.479964,-0.170765 -1.536886,1.081512 -1.935338,1.935338 -0.113844,0.170765 -0.05692,0.512296 0.227687,0.569217 0.113843,0.05692 1.536886,-0.796904 1.536886,-0.910747 -0.341531,-0.739982 -0.170765,-1.138434 0.68306,-1.195356 0.170766,0 0.455374,-0.398452 0.227687,-0.796904 z m -0.05692,-0.853825 c 1.138434,-1.081513 0.967668,-2.219947 0.739982,-3.472225 -1.195356,0.796904 -1.3092,1.309199 -0.739982,3.472225 z m -0.796904,-1.707651 c 0.05692,-0.341531 0.05692,-0.626139 -0.34153,-0.683061 -0.284609,-0.05692 -0.455374,0.170765 -0.512296,0.455373 -0.113843,0.739982 -0.227686,1.536886 -0.284608,2.276868 0,0.455374 0.284608,0.398453 0.626138,0.227688 0.284609,-0.113844 0.398452,-0.398453 0.398452,-0.683061 0.05692,-0.512295 0.113844,-1.024591 0.113844,-1.593807 z m -8.253649,-8.709022 c 1.309199,1.195356 1.309199,1.195356 2.447633,0.512295 -1.081512,-1.309199 -1.138434,-1.366121 -2.447633,-0.512295 z M 39.71835,18.22958 c -1.138434,-1.252277 -1.138434,-1.252277 -2.219946,-0.34153 1.138434,1.081513 1.138434,1.081513 2.219946,0.34153 z m -4.952188,-1.081513 c -0.284608,0.113844 -0.739983,0.170766 -0.626139,0.626139 0.113843,0.398453 0.569217,0.512296 0.967669,0.512296 0.34153,0 0.569217,-0.227687 0.512295,-0.569217 0,-0.512296 -0.455373,-0.569218 -0.853825,-0.569218 z m 0.398452,21.061032 c -1.138435,0 -2.049182,-0.227687 -3.01685,0.113844 0.967668,0.398452 1.821494,0.910747 3.01685,-0.113844 z m 1.593808,-21.061032 c 0.227686,-0.113843 0.68306,-0.113843 0.569216,-0.512294 -0.113843,-0.341531 -0.455373,-0.455374 -0.796904,-0.455374 -0.227686,0 -0.626138,0.113843 -0.569216,0.455374 0.05692,0.455373 0.455373,0.512294 0.796904,0.512294 z m 2.67532,-0.341529 c 0.398452,0.398451 0.68306,0.910747 1.479964,0.68306 -0.398452,-0.626139 -0.853825,-0.853825 -1.479964,-0.68306 z m 0.967669,17.873416 c -0.626139,0.227686 -1.081513,0.284608 -1.366121,0.910747 0.68306,0 1.081512,-0.113843 1.366121,-0.910747 z M 35.619987,15.668103 c -0.284608,0 -0.455373,-0.05692 -0.569217,-0.05692 -0.227687,0.05692 -0.569216,0.05692 -0.284608,0.398452 0.284608,0.34153 0.569217,0.05692 0.853825,-0.34153 z m 6.375231,2.675321 c -0.05692,0.05692 -0.170765,0.05692 -0.170765,0.113843 0,0.227687 0.113844,0.34153 0.341531,0.398452 0.05692,0 0.227687,0 0.227687,0 0,-0.227687 -0.284609,-0.34153 -0.398453,-0.512295 z"
     id="path4"
     style="stroke-width:0.569217" /><path
     d="m 37.005445,78.286856 c 0.455374,-0.512296 0.967669,-0.626139 1.423043,-1.081513 0.34153,-0.398452 0.626139,-0.626139 0.398452,-1.195356 -0.170765,-0.739982 0.227687,-1.366121 0.512295,-1.99226 0.284608,-0.68306 0.739983,-1.309199 0.512296,-2.219946 -0.170766,-0.512295 0.227687,-1.138434 0.512295,-1.65073 0.68306,-1.252277 1.479964,-2.447633 2.390711,-3.529146 0.96767,-1.195355 1.99226,-2.276868 2.903007,-3.472223 0.853826,-1.081513 1.99226,-1.878417 3.016851,-2.789164 0.569217,-0.512295 1.138434,-0.910748 1.650729,-1.479965 0.739982,-0.853825 1.764573,-1.138434 2.732243,-1.309198 2.049181,-0.341531 3.813754,-1.423043 5.919857,-1.707652 1.821495,-0.227687 3.586067,-0.68306 5.407562,-0.512295 0.398452,0.05692 0.796904,0 1.138434,-0.113843 1.024591,-0.28461 2.049182,-0.227688 3.016851,0.170764 0.626139,0.284609 1.252277,0 1.878416,0.05692 0.284609,0.05692 0.967669,-0.284608 0.455374,0.512296 0.227686,0.113843 0.455373,0.227686 0.68306,0.284608 2.618398,0.683061 4.952188,2.049182 7.3429,3.301459 0.170766,0.113843 0.512296,0.113843 0.455374,0.455374 -0.113843,0.910747 0.227687,0.796904 0.796904,0.34153 0.227686,-0.170765 0.455374,-0.05692 0.68306,0.170765 0.113844,0.113844 0.284609,0.284609 0.398452,0.455373 1.707652,2.106104 3.529146,4.098363 5.009111,6.31831 0.626139,0.910747 1.138433,1.821495 1.252277,2.959929 0.113844,1.081512 0.967669,1.764573 1.479964,2.67532 0.227687,0.398452 0.398452,0.739982 0.512296,1.138434 0.113843,0.512296 -0.113844,1.138434 0.739982,1.423043 0.398452,0.170765 0.227686,1.195356 -0.05692,1.764573 -0.113843,0.227687 -0.284608,0.455374 -0.512295,0.68306 -0.227687,0.284609 -0.455374,0.739982 -0.796904,0.05692 -0.113844,-0.227687 -0.34153,-0.170765 -0.512295,-0.113844 -0.910748,0.341531 -1.707652,-0.05692 -2.561477,-0.227686 -1.366121,-0.227687 -2.732242,-0.170765 -4.098363,-0.170765 -3.472224,-0.05692 -6.944448,-0.05692 -10.473594,-0.05692 -1.195356,0 -2.33379,-0.05692 -3.529146,0 -2.561477,0.170765 -5.179875,0.170765 -7.798274,0.227687 -3.073772,0.05692 -6.147544,0.398451 -9.221316,0.683061 -1.536886,0.113843 -3.016851,-0.05692 -4.496815,0 -1.935338,0.113843 -3.870676,0.227686 -5.862936,0.170764 -1.081512,0 -2.163025,-0.113843 -3.301459,-0.227686 z M 74.459928,59.275005 c -0.34153,0.284609 -0.68306,0.569218 -1.024591,0.796904 -0.512295,0.34153 -0.284608,0.739983 -0.113843,1.138434 0.227687,0.455374 0.512296,0.455374 0.967669,0.284609 1.138434,-0.398452 1.195356,-0.569217 0.569217,-1.536886 -0.170765,-0.227687 -0.512295,-0.341531 -0.398452,-0.683061 -1.081512,-1.366121 -2.106103,-1.536886 -4.098363,-0.68306 0,0.455374 0.341531,0.796904 0.569217,1.138434 0.170765,0.227687 0.455374,0.227687 0.683061,0.113844 0.284608,-0.113844 0.227686,-0.341531 0.170765,-0.626139 -0.05692,-0.170765 -0.113843,-0.398453 0.284608,-0.455374 0.569217,0.853825 1.423043,0.910747 2.390712,0.512295 z m 2.163025,4.781424 c -1.479964,0.569217 -3.01685,0.967668 -4.66758,1.252278 0.170765,-0.455374 0.512295,-0.455374 0.796904,-0.569218 1.195356,-0.455374 1.309199,-0.853825 0.512295,-1.821494 -0.284608,-0.341531 -0.569217,-0.227688 -0.910747,-0.170766 -1.081513,0.227688 -2.106103,0.683061 -3.244537,0.683061 0.455373,-0.284608 0.967669,-0.512295 1.479964,-0.683061 0.512295,-0.170765 0.796904,-0.455373 0.626139,-1.081512 -0.170765,-0.569217 -0.512295,-0.796904 -1.081513,-0.739982 -0.34153,0.05692 -0.68306,0.113843 -0.967668,0.284608 -0.853826,0.341531 -1.764574,0.341531 -2.675321,0.569217 0.170765,-0.170765 0.398452,-0.341529 0.626139,-0.398451 0.512296,-0.170766 0.967669,-0.341531 0.626139,-1.024591 -0.284609,-0.626139 -0.569217,-0.967669 -1.366121,-0.626139 -0.455374,0.227687 -1.024591,0.227687 -1.593808,0.170765 0.34153,-0.569217 0.910747,-0.512295 1.366121,-0.68306 0.34153,-0.113843 0.853826,-0.170765 0.626139,-0.739982 -0.170766,-0.455374 -0.455374,-0.739983 -1.024591,-0.512296 -0.455373,0.170765 -0.967669,0.341531 -1.479965,0.170765 0.227688,-0.34153 0.512296,-0.398452 0.796904,-0.512295 0.341531,-0.113843 0.96767,-0.05692 0.910748,-0.569217 -0.05692,-0.512296 -0.626139,-0.512296 -1.081513,-0.569218 -0.113843,0 -0.284608,0 -0.455373,0 -2.903007,0.113844 -5.692171,0.398453 -8.538256,1.423043 -2.789164,0.967669 -5.009111,2.561477 -7.172136,4.496815 -1.536886,1.3092 -2.732241,2.903008 -3.813754,4.610659 -1.081512,1.707651 -2.276868,3.35838 -3.016851,5.35064 -0.284608,0.796904 -0.569216,1.593808 -0.739981,2.390712 -0.170765,0.853825 -0.796904,1.536886 -0.796904,2.504555 1.138434,0 2.276868,-0.05692 3.301459,0.05692 1.138434,0.113843 2.219946,0.113843 3.301459,-0.170765 -0.113843,-0.512295 -0.683061,-0.05692 -0.796904,-0.512295 0.34153,-0.398452 0.853825,-0.34153 1.309199,-0.398452 1.821495,-0.113844 3.642989,-0.113844 5.464484,-0.113844 4.212206,0 8.424413,0.05692 12.636619,0.05692 3.756833,0.05692 7.570587,-0.113844 11.32742,0.05692 0.398451,0 0.853825,0.113844 1.138433,-0.170765 0.626139,-0.512295 1.366122,-0.455373 2.106104,-0.34153 1.593808,0.227687 3.130694,-0.170765 4.553736,-0.739982 0.227687,-0.113844 0.398452,-0.284609 0.34153,-0.569217 -0.05692,-0.227687 -0.227686,-0.284609 -0.455373,-0.227687 -0.455374,0.05692 -0.853825,0.170765 -1.309199,0.227687 -1.195356,0.113843 -2.390712,0.739982 -3.64299,0.34153 1.3092,-0.455373 2.561478,-0.796904 3.870676,-1.081512 1.366121,-0.341531 1.423043,-0.398453 1.252278,-1.764573 -0.113843,-0.853826 -0.34153,-1.081513 -1.138434,-0.796904 -0.853826,0.34153 -1.707652,0.34153 -2.504555,0.512295 -0.910748,0.170765 -1.878416,0.569217 -2.846085,0.341531 1.02459,-0.512296 2.106102,-0.626139 3.130694,-0.910748 0.284608,-0.05692 0.626138,-0.113844 0.68306,-0.455374 0.05692,-0.512295 0.05692,-1.02459 -0.227687,-1.423042 -0.284608,-0.398452 -0.739982,-0.227687 -1.081512,-0.113844 -1.366121,0.34153 -2.732243,0.739983 -4.155285,0.967669 -1.138434,0.227687 -2.219946,0.626139 -3.472224,0.398453 0.170765,-0.341531 0.455374,-0.341531 0.683061,-0.341531 1.593807,-0.34153 3.187615,-0.683061 4.724501,-1.024591 1.024591,-0.227686 1.195356,-0.512295 0.967669,-1.593807 -0.05692,-0.170765 -0.113843,-0.398453 -0.170765,-0.569218 -0.113843,-0.68306 -0.455374,-0.910747 -1.138434,-0.626139 -1.138434,0.455374 -2.276868,0.626139 -3.529146,0.853826 0.170765,-0.512295 0.569217,-0.512295 0.910747,-0.626138 1.479965,-0.512296 1.479965,-0.512296 1.195356,-1.99226 -0.113843,-0.284608 -0.170765,-0.34153 -0.170765,-0.455374 0.569217,0.34153 0.398452,1.024591 0.68306,1.536886 0.227688,-0.05692 0.398453,-0.05692 0.569218,-0.113844 0.910747,-0.227686 1.02459,-0.398451 0.796903,-1.138433 -0.227686,-0.739982 -0.398451,-0.853826 -1.252277,-0.626139 -0.284609,0.113843 -0.455374,0.455374 -0.796904,0.34153 z m 8.424412,4.439893 c -0.227686,1.99226 0.512296,3.813754 0.398453,5.69217 0,0.113844 0.170765,0.227688 0.284608,0.284609 0.626139,0.227687 1.252278,-0.284609 1.252278,-0.967669 0,-0.910747 -0.626139,-1.707651 -0.455374,-2.732242 0.170765,-0.796903 -0.683061,-1.650729 -1.479965,-2.276868 z M 73.890711,62.804151 c 0,0.910748 0.284608,1.309199 0.853826,1.309199 0.796904,-0.05692 1.423043,-0.512295 1.423043,-0.910747 -0.05692,-0.68306 -0.455375,-1.309199 -0.910748,-1.366121 -0.68306,-0.05692 -1.366121,0.455374 -1.366121,0.967669 z m 7.627509,4.269128 c -0.05692,-0.113843 -0.170765,-0.512295 -0.227687,-0.853825 -0.170765,-0.683061 -0.796904,-0.512296 -1.195356,-0.569218 -0.512295,0 -0.455374,0.512296 -0.34153,0.910748 0.05692,0.34153 0.113844,0.68306 0.170765,1.024591 0.05692,0.569216 0.227687,0.796904 0.796904,0.68306 0.569217,-0.113844 0.967669,-0.284609 0.796904,-1.195356 z M 70.247722,60.014988 c -0.05692,-0.398453 -0.284608,-0.739983 -0.569217,-1.024591 -0.455374,-0.455374 -0.910748,-0.170766 -1.309199,0.05692 -0.626139,0.284608 -0.398453,0.853825 -0.284609,1.252277 0.113843,0.512296 0.626139,0.341531 0.967669,0.227687 0.455373,-0.113844 0.910748,-0.170765 1.195356,-0.512295 z m 12.295088,9.221316 c 0.05692,1.081512 0.227687,1.366121 0.967669,1.138434 0.341531,-0.113843 0.796904,-0.113843 0.796904,-0.68306 0,-0.455374 0,-0.796904 -0.569216,-0.910748 -0.284609,-0.05692 -0.284609,-0.796904 -0.853826,-0.455373 -0.398452,0.227687 -0.341531,0.569217 -0.341531,0.910747 z M 71.784608,60.356518 c -0.512296,0.113843 -0.569217,0.512295 -0.455374,0.910747 0.113844,0.455374 0.227687,0.967669 0.967669,0.853826 0.398452,-0.05692 0.569217,-0.284609 0.512296,-0.739982 -0.113844,-0.626139 -0.569217,-1.081513 -1.024591,-1.024591 z m 5.293719,2.903007 c 0.398452,-0.739982 1.252277,-1.024591 0.796904,-1.764573 -0.284609,-0.398452 -0.910748,-0.170765 -1.195356,0.113843 -0.683061,0.569218 0,0.967669 0.398452,1.65073 z m -8.082883,-5.179876 c -0.113843,-0.512294 -0.455373,-0.796904 -0.910747,-0.910747 -0.34153,-0.113843 -0.569217,0.05692 -0.796904,0.227687 -0.284608,0.227687 -0.113843,0.512295 0.05692,0.796904 0.170765,0.284609 0.398453,0.398452 0.739983,0.284609 0.34153,-0.170765 0.626139,-0.284609 0.910746,-0.398453 z m 11.953559,6.602919 c -0.170765,-0.626139 -0.512296,-1.024591 -0.967669,-1.3092 -0.398452,-0.227686 -0.796904,0 -0.796904,0.455374 0,0.796904 0.398452,1.024591 1.764573,0.853826 z m 3.642989,10.928967 c 0.739982,0.113843 1.479965,0 2.219947,0.398452 0.227686,0.113844 0.512295,0 0.512295,-0.34153 0,-0.284608 -0.05692,-0.512295 -0.34153,-0.569217 -0.227687,-0.05692 -0.455374,0 -0.739982,0.05692 -0.569218,0.170765 -1.081513,0.284608 -1.65073,0.455373 z M 75.484519,59.331927 c 0.626139,1.764573 0.626139,1.764573 1.593808,1.138434 -0.398452,-0.455373 -0.853826,-0.796904 -1.593808,-1.138434 z m -25.67169,17.531886 c 0.910748,0.113843 1.707651,0.05692 2.561477,-0.113843 -0.853826,-0.113844 -1.707651,-0.05692 -2.561477,0.113843 z M 82.201281,66.219454 c 0.113843,0.512295 -0.28461,1.195355 0.512294,1.593807 0.341531,-0.68306 -0.170765,-1.138434 -0.512294,-1.593807 z M 69.507739,57.396589 c 0.455375,0.626139 0.910748,0.512295 1.479965,0.227687 -0.455374,-0.512296 -0.853826,-0.569217 -1.479965,-0.227687 z"
     id="path2-3"
     style="stroke-width:0.569217" /><path
     d="m 63.18943,50.224454 c -2.276868,-0.34153 -4.66758,-0.170765 -6.830605,-1.366121 -0.569217,-0.34153 -1.02459,-0.739982 -1.423043,-1.252277 -0.227686,-0.227687 -0.739982,-1.366121 -1.138433,0 -0.05692,0.170765 -0.227687,0.170765 -0.341531,0.05692 -0.170765,-0.113844 -0.34153,-0.284609 -0.398451,-0.398452 -0.853826,-2.106103 -2.561477,-3.870676 -2.732243,-6.261388 0,-0.113843 0,-0.227687 -0.05692,-0.284608 -1.252277,-1.593808 -0.626138,-3.244538 -0.113843,-4.895267 0.170765,-0.569217 0.227687,-1.081512 0.170765,-1.707651 -0.227686,-1.536886 0.796904,-2.561477 1.764573,-3.586068 1.593808,-1.65073 3.529146,-2.789163 5.521406,-3.870676 0.910747,-0.512295 1.821494,-0.967669 2.789163,-1.309199 0.626139,-0.227688 1.195356,-0.96767 1.935339,-0.113844 0.05692,0.05692 0.227686,0.05692 0.284608,0 1.821495,-0.739982 3.415303,0.34153 5.122954,0.626139 0.68306,0.113843 1.366121,0.512295 2.106103,0.05692 0.170765,-0.113844 0.569217,-0.05692 0.569217,0.284609 -0.05692,0.68306 0.512295,0.967669 0.910747,1.195355 0.853826,0.398453 1.252278,1.366121 2.219947,1.65073 0.113843,0.05692 0.227687,0.170765 0.284609,0.34153 0.512295,1.935338 2.049181,3.415302 2.447633,5.407562 0.170765,0.796904 0.34153,1.65073 0.512295,2.447634 0.170765,0.626138 0.05692,1.366121 -0.34153,1.992259 -0.398452,0.626139 -0.626139,1.309199 -0.853826,2.049181 -0.170765,0.569218 -0.227686,1.138435 -0.910747,1.423043 -0.34153,0.113844 -0.569217,0.683061 -0.455374,0.853826 0.512296,0.569217 0.170766,0.853825 -0.170765,1.366121 -2.106103,2.903007 -5.236797,4.041441 -8.481334,4.952188 -0.796904,0.05692 -1.536886,0.284609 -2.390712,0.341531 z m 6.261388,-18.841085 c -0.398452,0.170765 -0.569217,-0.170765 -0.739982,-0.34153 -0.569218,-0.626139 -1.252278,-0.512295 -1.65073,0 -0.626139,0.796903 -1.479964,0.569217 -2.33379,0.739982 0.569218,-0.455373 1.024591,-0.853826 0.05692,-1.252277 -1.02459,-0.455374 -1.479965,-1.593808 -2.561477,-2.049182 -0.170765,-0.05692 -0.227687,-0.512296 -0.284609,-0.683061 0.170766,-0.170765 0.284609,-0.113843 0.455374,-0.05692 0.455374,0.170765 0.967669,0.113843 0.967669,-0.455373 0,-0.398452 -0.512295,-0.739982 -1.02459,-0.626139 -0.455374,0.113843 -0.910747,0.284608 -1.366121,0.455373 -0.284609,0.113844 -0.455374,0.284609 -0.796904,0.341531 -2.049182,0.113843 -3.699912,0.910747 -4.952188,2.561477 -1.195357,1.593808 -1.821496,3.472224 -2.447634,5.293719 -1.138434,3.130694 -0.34153,5.976779 1.024591,8.765942 0.398451,0.739983 1.081512,1.3092 1.992259,1.65073 1.536886,0.512296 3.130694,0.739982 4.724502,1.081513 0.796904,0.170765 1.593808,0.227686 2.504555,0.796904 -2.732242,0.227686 -5.00911,-0.910748 -7.68443,-1.195357 1.366121,1.593808 3.244537,1.593808 4.66758,2.447634 0.05692,0.05692 0.227686,0 0.284608,-0.05692 0.398452,-0.512295 0.967669,-0.284608 1.479964,-0.284608 1.252278,0 2.561477,-0.05692 3.813755,-0.113843 0.227686,0 0.569217,0 0.512295,-0.341531 -0.05692,-0.170765 -0.34153,-0.284608 -0.512295,-0.455373 0.569217,-0.569218 1.707651,-0.170766 1.935338,-1.252278 -0.68306,-0.284608 -1.366121,0.398452 -2.219946,0 0.853825,-0.512296 1.821494,-0.398452 2.447633,-0.967669 0.68306,-0.626139 0.626139,-1.536886 0.796904,-2.447633 -1.081513,0 -2.049182,0.569216 -3.301459,0.284608 1.764573,-0.569217 3.244537,-1.081512 4.838345,-1.536886 0.853825,-0.227687 1.252277,-0.683061 1.309199,-1.536886 0.05692,-0.626139 0.227687,-1.252278 -0.05692,-1.878416 -1.252278,0.34153 -2.276869,1.252277 -3.64299,0.967669 0.341531,-0.284609 0.683061,-0.455374 1.024591,-0.569218 0.853826,-0.341529 0.512295,-0.853825 0.34153,-1.423042 -0.227686,-0.683061 -0.455374,-1.081513 -1.252278,-0.796904 -0.853825,0.34153 -1.707651,0.626139 -2.675319,0.569217 0.113843,-0.34153 0.34153,-0.284608 0.512295,-0.34153 0.739982,-0.341531 1.65073,-0.455374 2.276868,-0.96767 0.398452,-0.341529 0.68306,-0.626138 1.309199,-0.569216 0.455374,0.05692 0.910747,-0.341531 1.3092,-0.569217 0.68306,-0.284609 -0.113843,-0.910747 0.34153,-1.3092 0.68306,0.910747 1.423042,0.512296 2.163025,0.170765 0.398452,-0.170765 0.739982,-0.512295 0.626139,-0.910747 -0.170765,-0.455373 -0.284609,-1.138434 -0.967669,-1.138434 -0.398453,0 -0.796904,-0.05692 -1.252278,0.227687 -1.02459,0.626139 -2.163025,1.195356 -3.244537,1.707651 -0.569217,0.284609 -1.138435,0.739982 -2.163025,0.796904 1.764572,-1.536886 3.813754,-1.992259 5.35064,-3.301459 -1.423042,-1.479965 -1.479964,-1.479965 -2.67532,-0.455374 0.05692,0.341531 0.796904,0.455374 0.739983,1.024591 z m 0.512296,6.545996 c 0.626138,-0.227686 1.195355,-0.455373 1.707651,-0.68306 0.113843,-0.05692 0.284608,-0.113844 0.398451,-0.227687 0.170766,-0.113843 0.341531,-0.170765 0.398452,-0.398452 C 72.581512,35.76634 71.5,34.855593 70.703096,35.140202 c -1.707652,0.569216 -1.821495,0.796904 -0.96767,2.447633 0.05692,0.113844 0.113844,0.170765 0.227688,0.34153 z m 4.04144,-4.269127 c -0.398451,0.170765 -0.739982,0.284608 -1.02459,0.398451 -0.284609,0.113843 -0.796904,0.284609 -0.626139,0.683061 0.170765,0.512295 0.113843,1.195356 0.739982,1.479964 0.227687,0.113843 0.455374,0 0.683061,-0.170765 0.739982,-0.569217 0.796904,-1.024591 0.227686,-2.390711 z m -5.122953,10.985889 c 1.593808,0.113843 2.106103,-0.626139 1.764573,-2.447633 -1.707652,0 -1.593808,1.309198 -1.764573,2.447633 z m 5.00911,-3.756833 c -0.227687,0.113843 -0.512295,0.398452 -0.739982,0.398452 -1.479964,-0.170765 -1.536886,1.081512 -1.935338,1.935338 -0.113844,0.170765 -0.05692,0.512296 0.227687,0.569217 0.113843,0.05692 1.536886,-0.796904 1.536886,-0.910747 -0.341531,-0.739982 -0.170765,-1.138434 0.68306,-1.195356 0.170766,0 0.455374,-0.398452 0.227687,-0.796904 z m -0.05692,-0.853825 c 1.138434,-1.081513 0.967668,-2.219947 0.739982,-3.472225 -1.195356,0.796904 -1.3092,1.309199 -0.739982,3.472225 z m -0.796904,-1.707651 c 0.05692,-0.341531 0.05692,-0.626139 -0.34153,-0.683061 -0.284609,-0.05692 -0.455374,0.170765 -0.512296,0.455373 -0.113843,0.739982 -0.227686,1.536886 -0.284608,2.276868 0,0.455374 0.284608,0.398453 0.626138,0.227688 0.284609,-0.113844 0.398452,-0.398453 0.398452,-0.683061 0.05692,-0.512295 0.113844,-1.024591 0.113844,-1.593807 z m -8.253649,-8.709022 c 1.309199,1.195356 1.309199,1.195356 2.447633,0.512295 -1.081512,-1.309199 -1.138434,-1.366121 -2.447633,-0.512295 z m 4.212206,-0.626139 C 67.85701,27.74038 67.85701,27.74038 66.775498,28.651127 c 1.138434,1.081513 1.138434,1.081513 2.219946,0.34153 z m -4.952188,-1.081513 c -0.284608,0.113844 -0.739983,0.170766 -0.626139,0.626139 0.113843,0.398453 0.569217,0.512296 0.967669,0.512296 0.34153,0 0.569217,-0.227687 0.512295,-0.569217 0,-0.512296 -0.455373,-0.569218 -0.853825,-0.569218 z m 0.398452,21.061032 c -1.138435,0 -2.049182,-0.227687 -3.01685,0.113844 0.967668,0.398452 1.821494,0.910747 3.01685,-0.113844 z m 1.593808,-21.061032 c 0.227686,-0.113843 0.68306,-0.113843 0.569216,-0.512294 -0.113843,-0.341531 -0.455373,-0.455374 -0.796904,-0.455374 -0.227686,0 -0.626138,0.113843 -0.569216,0.455374 0.05692,0.455373 0.455373,0.512294 0.796904,0.512294 z m 2.67532,-0.341529 c 0.398452,0.398451 0.68306,0.910747 1.479964,0.68306 -0.398452,-0.626139 -0.853825,-0.853825 -1.479964,-0.68306 z m 0.967669,17.873416 c -0.626139,0.227686 -1.081513,0.284608 -1.366121,0.910747 0.68306,0 1.081512,-0.113843 1.366121,-0.910747 z M 64.897081,26.43118 c -0.284608,0 -0.455373,-0.05692 -0.569217,-0.05692 -0.227687,0.05692 -0.569216,0.05692 -0.284608,0.398452 0.284608,0.34153 0.569217,0.05692 0.853825,-0.34153 z m 6.375231,2.675321 c -0.05692,0.05692 -0.170765,0.05692 -0.170765,0.113843 0,0.227687 0.113844,0.34153 0.341531,0.398452 0.05692,0 0.227687,0 0.227687,0 0,-0.227687 -0.284609,-0.34153 -0.398453,-0.512295 z"
     id="path4-6"
     style="stroke-width:0.569217" /></svg>
